{
  "accessors": [
    {
      "bufferView": 2,
      "componentType": 5126,
      "count": 2277,
      "max": [
        1.1679987907409668,
        5.047287464141846,
        1.1679987907409668
      ],
      "min": [
        -1.1679987907409668,
        2.4854400635376805e-06,
        -1.1679987907409668
      ],
      "type": "VEC3"
    },
    {
      "bufferView": 2,
      "byteOffset": 27324,
      "componentType": 5126,
      "count": 2277,
      "max": [
        0.9999990463256836,
        0.9999990463256836,
        0.9999990463256836
      ],
      "min": [
        -0.9999990463256836,
        -0.9999989867210388,
        -0.9999990463256836
      ],
      "type": "VEC3"
    },
    {
      "bufferView": 1,
      "componentType": 5126,
      "count": 2277,
      "max": [
        0.9981229901313782,
        0.9991289973258972
      ],
      "min": [
        0.0011579999700188637,
        0.0021639999467879534
      ],
      "type": "VEC2"
    },
    {
      "bufferView": 0,
      "componentType": 5125,
      "count": 4410,
      "type": "SCALAR"
    },
    {
      "bufferView": 2,
      "byteOffset": 54648,
      "componentType": 5126,
      "count": 2277,
      "max": [
        1.1679987907409668,
        5.047287464141846,
        1.1679987907409668
      ],
      "min": [
        -1.1679987907409668,
        2.4854400635376805e-06,
        -1.1679987907409668
      ],
      "type": "VEC3"
    },
    {
      "bufferView": 2,
      "byteOffset": 81972,
      "componentType": 5126,
      "count": 2277,
      "max": [
        0.9999990463256836,
        0.9999990463256836,
        0.9999990463256836
      ],
      "min": [
        -0.9999990463256836,
        -0.9999989867210388,
        -0.9999990463256836
      ],
      "type": "VEC3"
    },
    {
      "bufferView": 1,
      "byteOffset": 18216,
      "componentType": 5126,
      "count": 2277,
      "max": [
        0.9981229901313782,
        0.9991289973258972
      ],
      "min": [
        0.0011579999700188637,
        0.0021639999467879534
      ],
      "type": "VEC2"
    },
    {
      "bufferView": 0,
      "byteOffset": 17640,
      "componentType": 5125,
      "count": 4410,
      "type": "SCALAR"
    },
    {
      "bufferView": 2,
      "byteOffset": 109296,
      "componentType": 5126,
      "count": 2277,
      "max": [
        1.1679987907409668,
        5.047287464141846,
        1.1679987907409668
      ],
      "min": [
        -1.1679987907409668,
        2.4854400635376805e-06,
        -1.1679987907409668
      ],
      "type": "VEC3"
    },
    {
      "bufferView": 2,
      "byteOffset": 136620,
      "componentType": 5126,
      "count": 2277,
      "max": [
        0.9999990463256836,
        0.9999990463256836,
        0.9999990463256836
      ],
      "min": [
        -0.9999990463256836,
        -0.9999989867210388,
        -0.9999990463256836
      ],
      "type": "VEC3"
    },
    {
      "bufferView": 1,
      "byteOffset": 36432,
      "componentType": 5126,
      "count": 2277,
      "max": [
        0.9981229901313782,
        0.9991289973258972
      ],
      "min": [
        0.0011579999700188637,
        0.0021639999467879534
      ],
      "type": "VEC2"
    },
    {
      "bufferView": 0,
      "byteOffset": 35280,
      "componentType": 5125,
      "count": 4410,
      "type": "SCALAR"
    },
    {
      "bufferView": 2,
      "byteOffset": 163944,
      "componentType": 5126,
      "count": 2277,
      "max": [
        1.1679987907409668,
        5.047287464141846,
        1.1679987907409668
      ],
      "min": [
        -1.1679987907409668,
        2.4854400635376805e-06,
        -1.1679987907409668
      ],
      "type": "VEC3"
    },
    {
      "bufferView": 2,
      "byteOffset": 191268,
      "componentType": 5126,
      "count": 2277,
      "max": [
        0.9999990463256836,
        0.9999990463256836,
        0.9999990463256836
      ],
      "min": [
        -0.9999990463256836,
        -0.9999989867210388,
        -0.9999990463256836
      ],
      "type": "VEC3"
    },
    {
      "bufferView": 1,
      "byteOffset": 54648,
      "componentType": 5126,
      "count": 2277,
      "max": [
        0.9981229901313782,
        0.9991289973258972
      ],
      "min": [
        0.0011579999700188637,
        0.0021639999467879534
      ],
      "type": "VEC2"
    },
    {
      "bufferView": 0,
      "byteOffset": 52920,
      "componentType": 5125,
      "count": 4410,
      "type": "SCALAR"
    }
  ],
  "asset": {
    "extras": {
      "author": "Tigerar1 (https://sketchfab.com/allanromanreyes)",
      "license": "SKETCHFAB Standard (https://sketchfab.com/licenses)",
      "source": "https://sketchfab.com/3d-models/tokyo-tower-95c5b770d1764ab99c145d4bbe725f77",
      "title": "Tokyo Tower"
    },
    "generator": "Sketchfab-16.16.0",
    "version": "2.0"
  },
  "bufferViews": [
    {
      "buffer": 0,
      "byteLength": 70560,
      "name": "floatBufferViews",
      "target": 34963
    },
    {
      "buffer": 0,
      "byteLength": 72864,
      "byteOffset": 70560,
      "byteStride": 8,
      "name": "floatBufferViews",
      "target": 34962
    },
    {
      "buffer": 0,
      "byteLength": 218592,
      "byteOffset": 143424,
      "byteStride": 12,
      "name": "floatBufferViews",
      "target": 34962
    }
  ],
  "buffers": [
    {
      "byteLength": 362016,
      "uri": "scene.bin"
    }
  ],
  "images": [
    {
      "uri": "textures/Mdl_0_Mtl_S018_nai_01_baseColor.png"
    },
    {
      "uri": "textures/Mdl_0_Mtl_S018_day_01_baseColor.png"
    }
  ],
  "materials": [
    {
      "doubleSided": true,
      "name": "Mdl_0_Mtl_S018_nai_01",
      "pbrMetallicRoughness": {
        "baseColorTexture": {
          "index": 0
        },
        "metallicFactor": 0.0
      }
    },
    {
      "doubleSided": true,
      "name": "Mdl_0_Mtl_S018_day_01",
      "pbrMetallicRoughness": {
        "baseColorTexture": {
          "index": 1
        },
        "metallicFactor": 0.0
      }
    }
  ],
  "meshes": [
    {
      "name": "Object_0",
      "primitives": [
        {
          "attributes": {
            "NORMAL": 1,
            "POSITION": 0,
            "TEXCOORD_0": 2
          },
          "indices": 3,
          "material": 0,
          "mode": 4
        }
      ]
    },
    {
      "name": "Object_1",
      "primitives": [
        {
          "attributes": {
            "NORMAL": 5,
            "POSITION": 4,
            "TEXCOORD_0": 6
          },
          "indices": 7,
          "material": 1,
          "mode": 4
        }
      ]
    },
    {
      "name": "Object_2",
      "primitives": [
        {
          "attributes": {
            "NORMAL": 9,
            "POSITION": 8,
            "TEXCOORD_0": 10
          },
          "indices": 11,
          "material": 1,
          "mode": 4
        }
      ]
    },
    {
      "name": "Object_3",
      "primitives": [
        {
          "attributes": {
            "NORMAL": 13,
            "POSITION": 12,
            "TEXCOORD_0": 14
          },
          "indices": 15,
          "material": 0,
          "mode": 4
        }
      ]
    }
  ],
  "nodes": [
    {
      "children": [
        1
      ],
      "matrix": [
        1.0,
        0.0,
        0.0,
        0.0,
        0.0,
        2.220446049250313e-16,
        -1.0,
        0.0,
        0.0,
        1.0,
        2.220446049250313e-16,
        0.0,
        0.0,
        0.0,
        0.0,
        1.0
      ],
      "name": "Sketchfab_model"
    },
    {
      "children": [
        2
      ],
      "matrix": [
        1.0,
        0.0,
        0.0,
        0.0,
        0.0,
        -4.371139006309477e-08,
        0.999999999999999,
        0.0,
        0.0,
        -0.999999999999999,
        -4.371139006309477e-08,
        0.0,
        0.0,
        0.0,
        0.0,
        1.0
      ],
      "name": "Collada visual scene group"
    },
    {
      "children": [
        3,
        4,
        5,
        6
      ],
      "name": "Object_2"
    },
    {
      "mesh": 0,
      "name": "Object_3"
    },
    {
      "mesh": 1,
      "name": "Object_4"
    },
    {
      "mesh": 2,
      "name": "Object_5"
    },
    {
      "mesh": 3,
      "name": "Object_6"
    }
  ],
  "samplers": [
    {
      "magFilter": 9729,
      "minFilter": 9987,
      "wrapS": 10497,
      "wrapT": 10497
    }
  ],
  "scene": 0,
  "scenes": [
    {
      "name": "Sketchfab_Scene",
      "nodes": [
        0
      ]
    }
  ],
  "textures": [
    {
      "sampler": 0,
      "source": 0
    },
    {
      "sampler": 0,
      "source": 1
    }
  ]
}
