{
  "accessors": [
    {
      "bufferView": 2,
      "componentType": 5126,
      "count": 15714,
      "max": [
        4653.54931640625,
        4658.34716796875,
        15252.60546875
      ],
      "min": [
        -4843.5615234375,
        -4838.763671875,
        0.0
      ],
      "type": "VEC3"
    },
    {
      "bufferView": 2,
      "byteOffset": 188568,
      "componentType": 5126,
      "count": 15714,
      "max": [
        1.0,
        1.0,
        1.0
      ],
      "min": [
        -1.0,
        -1.0,
        -1.0
      ],
      "type": "VEC3"
    },
    {
      "bufferView": 1,
      "componentType": 5126,
      "count": 15714,
      "max": [
        0.9998695850372314,
        0.9990466833114624
      ],
      "min": [
        -0.00018569972598925233,
        8.011935278773308e-05
      ],
      "type": "VEC2"
    },
    {
      "bufferView": 1,
      "byteOffset": 125712,
      "componentType": 5126,
      "count": 15714,
      "max": [
        0.9990000128746033,
        0.9987769722938538
      ],
      "min": [
        0.0010000000474974513,
        0.0010000000474974513
      ],
      "type": "VEC2"
    },
    {
      "bufferView": 1,
      "byteOffset": 251424,
      "componentType": 5126,
      "count": 15714,
      "max": [
        0.9998695850372314,
        0.9990466833114624
      ],
      "min": [
        -0.00018569972598925233,
        8.011935278773308e-05
      ],
      "type": "VEC2"
    },
    {
      "bufferView": 1,
      "byteOffset": 377136,
      "componentType": 5126,
      "count": 15714,
      "max": [
        0.9998695850372314,
        0.9990466833114624
      ],
      "min": [
        -0.00018569972598925233,
        8.011935278773308e-05
      ],
      "type": "VEC2"
    },
    {
      "bufferView": 0,
      "componentType": 5125,
      "count": 26454,
      "type": "SCALAR"
    }
  ],
  "asset": {
    "extras": {
      "author": "aitortilla01 (https://sketchfab.com/aitortilla01)",
      "license": "CC-BY-4.0 (http://creativecommons.org/licenses/by/4.0/)",
      "source": "https://sketchfab.com/3d-models/the-vizcayne-miami-2f326604f2c34a09b3dcf3d6f8e3fd4b",
      "title": "The Vizcayne, Miami"
    },
    "generator": "Sketchfab-12.65.0",
    "version": "2.0"
  },
  "bufferViews": [
    {
      "buffer": 0,
      "byteLength": 105816,
      "name": "floatBufferViews",
      "target": 34963
    },
    {
      "buffer": 0,
      "byteLength": 502848,
      "byteOffset": 105816,
      "byteStride": 8,
      "name": "floatBufferViews",
      "target": 34962
    },
    {
      "buffer": 0,
      "byteLength": 377136,
      "byteOffset": 608664,
      "byteStride": 12,
      "name": "floatBufferViews",
      "target": 34962
    }
  ],
  "buffers": [
    {
      "byteLength": 985800,
      "uri": "scene.bin"
    }
  ],
  "images": [
    {
      "uri": "textures/hivizcayne_baseColor.png"
    }
  ],
  "materials": [
    {
      "doubleSided": true,
      "name": "hivizcayne",
      "pbrMetallicRoughness": {
        "baseColorTexture": {
          "index": 0
        },
        "metallicFactor": 0.0,
        "roughnessFactor": 0.6
      }
    }
  ],
  "meshes": [
    {
      "name": "hivizcayne_hivizcayne_0",
      "primitives": [
        {
          "attributes": {
            "NORMAL": 1,
            "POSITION": 0,
            "TEXCOORD_0": 2,
            "TEXCOORD_1": 3,
            "TEXCOORD_2": 4,
            "TEXCOORD_3": 5
          },
          "indices": 6,
          "material": 0,
          "mode": 4
        }
      ]
    }
  ],
  "nodes": [
    {
      "children": [
        1
      ],
      "matrix": [
        1.0,
        0.0,
        0.0,
        0.0,
        0.0,
        2.220446049250313e-16,
        -1.0,
        0.0,
        0.0,
        1.0,
        2.220446049250313e-16,
        0.0,
        0.0,
        0.0,
        0.0,
        1.0
      ],
      "name": "Sketchfab_model"
    },
    {
      "children": [
        2
      ],
      "matrix": [
        1.0,
        0.0,
        0.0,
        0.0,
        0.0,
        0.0,
        1.0,
        0.0,
        0.0,
        -1.0,
        0.0,
        0.0,
        0.0,
        0.0,
        0.0,
        1.0
      ],
      "name": "hivizcayne.FBX"
    },
    {
      "children": [
        3
      ],
      "name": "RootNode"
    },
    {
      "children": [
        4
      ],
      "matrix": [
        1.0,
        0.0,
        0.0,
        0.0,
        0.0,
        2.220446049250313e-16,
        -1.0,
        0.0,
        0.0,
        1.0,
        2.220446049250313e-16,
        0.0,
        183.60000610351563,
        -3.5198974609375,
        -38.763671875,
        1.0
      ],
      "name": "hivizcayne"
    },
    {
      "mesh": 0,
      "name": "hivizcayne_hivizcayne_0"
    }
  ],
  "samplers": [
    {
      "magFilter": 9729,
      "minFilter": 9987,
      "wrapS": 10497,
      "wrapT": 10497
    }
  ],
  "scene": 0,
  "scenes": [
    {
      "name": "Sketchfab_Scene",
      "nodes": [
        0
      ]
    }
  ],
  "textures": [
    {
      "sampler": 0,
      "source": 0
    }
  ]
}
