{
  "accessors": [
    {
      "bufferView": 2,
      "componentType": 5126,
      "count": 10341,
      "max": [
        2700.0,
        2700.0,
        25022.6328125
      ],
      "min": [
        -2700.0,
        -2700.0,
        0.0
      ],
      "type": "VEC3"
    },
    {
      "bufferView": 2,
      "byteOffset": 124092,
      "componentType": 5126,
      "count": 10341,
      "max": [
        1.0,
        1.0,
        1.0
      ],
      "min": [
        -1.0,
        -1.0,
        -1.0
      ],
      "type": "VEC3"
    },
    {
      "bufferView": 1,
      "componentType": 5126,
      "count": 10341,
      "max": [
        0.9998084902763367,
        0.9995862245559692
      ],
      "min": [
        0.001047942670993507,
        -0.00022534525487571955
      ],
      "type": "VEC2"
    },
    {
      "bufferView": 1,
      "byteOffset": 82728,
      "componentType": 5126,
      "count": 10341,
      "max": [
        0.9998084902763367,
        0.9995862245559692
      ],
      "min": [
        0.001047942670993507,
        -0.00022534525487571955
      ],
      "type": "VEC2"
    },
    {
      "bufferView": 1,
      "byteOffset": 165456,
      "componentType": 5126,
      "count": 10341,
      "max": [
        0.9990000128746033,
        0.9937615990638733
      ],
      "min": [
        0.0010000000474974513,
        0.0010000000474974513
      ],
      "type": "VEC2"
    },
    {
      "bufferView": 1,
      "byteOffset": 248184,
      "componentType": 5126,
      "count": 10341,
      "max": [
        0.9998084902763367,
        0.9995862245559692
      ],
      "min": [
        0.001047942670993507,
        -0.00022534525487571955
      ],
      "type": "VEC2"
    },
    {
      "bufferView": 1,
      "byteOffset": 330912,
      "componentType": 5126,
      "count": 10341,
      "max": [
        0.9998084902763367,
        0.9995862245559692
      ],
      "min": [
        0.001047942670993507,
        -0.00022534525487571955
      ],
      "type": "VEC2"
    },
    {
      "bufferView": 0,
      "componentType": 5125,
      "count": 17847,
      "type": "SCALAR"
    }
  ],
  "asset": {
    "extras": {
      "author": "aitortilla01 (https://sketchfab.com/aitortilla01)",
      "license": "CC-BY-4.0 (http://creativecommons.org/licenses/by/4.0/)",
      "source": "https://sketchfab.com/3d-models/park-tower-chicago-fa82b5beb9a9427698dafd2c3867ebf9",
      "title": "Park Tower, Chicago"
    },
    "generator": "Sketchfab-12.65.0",
    "version": "2.0"
  },
  "bufferViews": [
    {
      "buffer": 0,
      "byteLength": 71388,
      "name": "floatBufferViews",
      "target": 34963
    },
    {
      "buffer": 0,
      "byteLength": 413640,
      "byteOffset": 71388,
      "byteStride": 8,
      "name": "floatBufferViews",
      "target": 34962
    },
    {
      "buffer": 0,
      "byteLength": 248184,
      "byteOffset": 485028,
      "byteStride": 12,
      "name": "floatBufferViews",
      "target": 34962
    }
  ],
  "buffers": [
    {
      "byteLength": 733212,
      "uri": "scene.bin"
    }
  ],
  "images": [
    {
      "uri": "textures/Material_26_baseColor.png"
    }
  ],
  "materials": [
    {
      "alphaMode": "BLEND",
      "doubleSided": true,
      "name": "Material_26",
      "pbrMetallicRoughness": {
        "baseColorTexture": {
          "index": 0
        },
        "metallicFactor": 0.0,
        "roughnessFactor": 0.6
      }
    }
  ],
  "meshes": [
    {
      "name": "hirise13_Material #26_0",
      "primitives": [
        {
          "attributes": {
            "NORMAL": 1,
            "POSITION": 0,
            "TEXCOORD_0": 2,
            "TEXCOORD_1": 3,
            "TEXCOORD_2": 4,
            "TEXCOORD_3": 5,
            "TEXCOORD_4": 6
          },
          "indices": 7,
          "material": 0,
          "mode": 4
        }
      ]
    }
  ],
  "nodes": [
    {
      "children": [
        1
      ],
      "matrix": [
        1.0,
        0.0,
        0.0,
        0.0,
        0.0,
        2.220446049250313e-16,
        -1.0,
        0.0,
        0.0,
        1.0,
        2.220446049250313e-16,
        0.0,
        0.0,
        0.0,
        0.0,
        1.0
      ],
      "name": "Sketchfab_model"
    },
    {
      "children": [
        2
      ],
      "matrix": [
        1.0,
        0.0,
        0.0,
        0.0,
        0.0,
        0.0,
        1.0,
        0.0,
        0.0,
        -1.0,
        0.0,
        0.0,
        0.0,
        0.0,
        0.0,
        1.0
      ],
      "name": "hirise13.FBX"
    },
    {
      "children": [
        3
      ],
      "name": "RootNode"
    },
    {
      "children": [
        4
      ],
      "matrix": [
        1.0,
        0.0,
        0.0,
        0.0,
        0.0,
        2.220446049250313e-16,
        -1.0,
        0.0,
        0.0,
        1.0,
        2.220446049250313e-16,
        0.0,
        0.0,
        0.0,
        0.0,
        1.0
      ],
      "name": "hirise13"
    },
    {
      "mesh": 0,
      "name": "hirise13_Material #26_0"
    }
  ],
  "samplers": [
    {
      "magFilter": 9729,
      "minFilter": 9987,
      "wrapS": 10497,
      "wrapT": 10497
    }
  ],
  "scene": 0,
  "scenes": [
    {
      "name": "Sketchfab_Scene",
      "nodes": [
        0
      ]
    }
  ],
  "textures": [
    {
      "sampler": 0,
      "source": 0
    }
  ]
}
